# xmcd
# 
# Track frame offsets:
#   150
#   41443
#   79196
#   112351
#   143176
#   173451
#   199045
#   224142
#   248600
#   271610
#   294415
#   315537
# 
# Disc length: 4434 seconds
# 
# Revision: 0
# Processed by: cddbd v1.5.2PL0 Copyright (c) Steve Scherf et al.
# Submitted via: Synapstar 1.0 
# 
DISCID=ac11500c
DTITLE=MISC - JAM TRAX 1
DYEAR=1900
DGENRE=Blues
TTITLE0=JAM TRAX 1
TTITLE1=JAM TRAX 1
TTITLE2=JAM TRAX 1
TTITLE3=JAM TRAX 1
TTITLE4=JAM TRAX 1
TTITLE5=JAM TRAX 1
TTITLE6=JAM TRAX 1
TTITLE7=JAM TRAX 1
TTITLE8=JAM TRAX 1
TTITLE9=JAM TRAX 1
TTITLE10=JAM TRAX 1
TTITLE11=JAM TRAX 1
EXTD=MediaType: Audio CD Producer: Other
EXTT0=
EXTT1=
EXTT2=
EXTT3=
EXTT4=
EXTT5=
EXTT6=
EXTT7=
EXTT8=
EXTT9=
EXTT10=
EXTT11=
PLAYORDER=
